<svg width="184" height="133" viewBox="0 0 184 133" fill="none" xmlns="http://www.w3.org/2000/svg">
<path fill-rule="evenodd" clip-rule="evenodd" d="M144.885 91.3983C145.319 91.0215 145.861 90.7933 146.434 90.7469L146.446 90.7458L169.355 89.1599C169.702 89.1361 170.05 89.2087 170.358 89.3697C170.663 89.529 170.918 89.7687 171.096 90.0627C171.098 90.0658 171.1 90.0688 171.102 90.0719L171.104 90.0751C171.281 90.3729 171.373 90.7139 171.369 91.0605C171.366 91.4083 171.266 91.7482 171.081 92.0426L158.851 111.502C158.539 111.985 158.082 112.355 157.545 112.559C157.008 112.762 156.42 112.789 155.866 112.635C155.313 112.481 154.824 112.153 154.47 111.701C154.116 111.249 153.916 110.695 153.899 110.121C153.898 110.107 153.898 110.093 153.898 110.079L153.997 100.306L145.347 95.7843C145.334 95.7776 145.321 95.7706 145.309 95.7634C144.811 95.477 144.418 95.0389 144.187 94.5131C143.956 93.9873 143.899 93.4014 144.024 92.841C144.15 92.2806 144.452 91.7751 144.885 91.3983ZM167.441 91.0073L146.603 92.8938C146.49 92.9039 146.383 92.9493 146.298 93.0237C146.211 93.099 146.151 93.2001 146.126 93.3122C146.101 93.4243 146.112 93.5415 146.158 93.6466C146.202 93.7469 146.276 93.8313 146.369 93.8885L155.26 98.2946L167.441 91.0073ZM156.32 100.17L168.547 92.855L157.039 110.338C156.977 110.432 156.886 110.505 156.78 110.545C156.673 110.586 156.555 110.591 156.445 110.56C156.334 110.53 156.236 110.464 156.165 110.374C156.098 110.287 156.058 110.183 156.052 110.073L156.32 100.17Z" fill="#444954"/>
<path d="M83.3245 35.4161C71.7178 47.1022 51.2094 75.518 62.0289 95.6922C75.5532 120.91 140.452 79.2988 115.364 67.6662C90.2752 56.0336 65.8814 122.018 101.568 120.391C116.398 118.621 131.22 114.7 145.702 105.512" stroke="#293042" stroke-width="2.25" stroke-dasharray="6 6"/>
<rect x="0.00195312" y="0.5" width="173.524" height="58.3398" rx="29.1699" fill="#272A31"/>
<g opacity="0.4">
<rect x="24.752" y="20.9316" width="111" height="4.5" rx="2.25" fill="#444954"/>
</g>
<g opacity="0.4">
<rect x="38.252" y="34.4316" width="110.25" height="4.5" rx="2.25" fill="#444954"/>
</g>
<path d="M40.3903 71.5547L28.4231 55.0999L52.3574 55.0999L40.3903 71.5547Z" fill="#272A31"/>
</svg>
