<svg width="144" height="185" viewBox="0 0 144 185" fill="none" xmlns="http://www.w3.org/2000/svg">
<g id="Group 590">
<circle id="Ellipse 110" cx="72" cy="71.5" r="71.5" fill="#F1F1F1"/>
<g id="Group 23">
<rect id="Rectangle 34" x="43.9515" y="70.0427" width="70" height="98" rx="7" transform="rotate(2.5 43.9515 70.0427)" fill="#EEEEEE" stroke="#999999" stroke-width="2"/>
<rect id="Rectangle 23" x="2.33506" y="64.1811" width="74" height="102" rx="9" transform="rotate(-7.5 2.33506 64.1811)" fill="#FAFAFA" stroke="#999999" stroke-width="2"/>
<path id="Rectangle 24" d="M4.50124 72.9736C3.92454 68.5931 7.00811 64.5745 11.3886 63.9978L66.9095 56.6883C71.29 56.1116 75.3086 59.1952 75.8853 63.5757L77.8432 78.4473L6.45913 87.8452L4.50124 72.9736Z" fill="#EEEEEE"/>
<rect id="Rectangle 25" x="90.3672" y="58.6426" width="3" height="10" rx="1.5" transform="rotate(82.5 90.3672 58.6426)" fill="#999999"/>
<rect id="Rectangle 26" x="62.9688" y="42.0771" width="3" height="10" rx="1.5" transform="rotate(-7.5 62.9688 42.0771)" fill="#999999"/>
<rect id="Rectangle 27" x="80.5469" y="44.8066" width="3" height="10" rx="1.5" transform="rotate(37.5 80.5469 44.8066)" fill="#999999"/>
<rect id="Rectangle 28" x="13.9219" y="90.8965" width="58" height="4" rx="2" transform="rotate(-7.5 13.9219 90.8965)" fill="#DCDCDC"/>
<rect id="Rectangle 30" x="16.5312" y="110.726" width="58" height="4" rx="2" transform="rotate(-7.5 16.5312 110.726)" fill="#DCDCDC"/>
<rect id="Rectangle 32" x="19.1445" y="130.555" width="58" height="4" rx="2" transform="rotate(-7.5 19.1445 130.555)" fill="#DCDCDC"/>
<rect id="Rectangle 29" x="14.9648" y="98.8281" width="21" height="4" rx="2" transform="rotate(-7.5 14.9648 98.8281)" fill="#EEEEEE"/>
<rect id="Rectangle 31" x="17.5781" y="118.657" width="21" height="4" rx="2" transform="rotate(-7.5 17.5781 118.657)" fill="#EEEEEE"/>
<rect id="Rectangle 33" x="20.1875" y="138.486" width="21" height="4" rx="2" transform="rotate(-7.5 20.1875 138.486)" fill="#EEEEEE"/>
</g>
</g>
</svg>
