<svg width="11" height="12" viewBox="0 0 11 12" fill="none" xmlns="http://www.w3.org/2000/svg">
<path d="M4.82031 7.63312C4.82031 7.45278 4.89196 7.27982 5.01948 7.15229C5.147 7.02477 5.31997 6.95313 5.50031 6.95312C5.68066 6.95313 5.85362 7.02477 5.98115 7.15229C6.10867 7.27982 6.18031 7.45278 6.18031 7.63312V8.31312C6.18031 8.49347 6.10867 8.66643 5.98115 8.79396C5.85362 8.92148 5.68066 8.99312 5.50031 8.99312C5.31997 8.99312 5.147 8.92148 5.01948 8.79396C4.89196 8.66643 4.82031 8.49347 4.82031 8.31312V7.63312Z" fill="white"/>
<path fill-rule="evenodd" clip-rule="evenodd" d="M3.11792 3.66516C3.11792 3.03394 3.36867 2.42858 3.815 1.98224C4.26134 1.53591 4.8667 1.28516 5.49792 1.28516C6.12913 1.28516 6.73449 1.53591 7.18083 1.98224C7.62717 2.42858 7.87792 3.03394 7.87792 3.66516V4.51516H8.44458C8.7151 4.51516 8.97455 4.62262 9.16583 4.81391C9.35712 5.00519 9.46458 5.26464 9.46458 5.53516V8.19849C9.46458 8.48127 9.40889 8.76128 9.30067 9.02254C9.19246 9.28379 9.03384 9.52117 8.83389 9.72113C8.63393 9.92108 8.39655 10.0797 8.13529 10.1879C7.87404 10.2961 7.59403 10.3518 7.31125 10.3518H3.68458C3.11348 10.3518 2.56578 10.125 2.16195 9.72113C1.75812 9.3173 1.53125 8.76959 1.53125 8.19849V5.53516C1.53125 5.26464 1.63871 5.00519 1.83 4.81391C2.02129 4.62262 2.28073 4.51516 2.55125 4.51516H3.11792V3.66516ZM3.79792 4.51516H7.19792V3.66516C7.19792 3.21429 7.01881 2.78189 6.7 2.46307C6.38119 2.14426 5.94878 1.96516 5.49792 1.96516C5.04705 1.96516 4.61465 2.14426 4.29584 2.46307C3.97702 2.78189 3.79792 3.21429 3.79792 3.66516V4.51516ZM2.55125 5.19516C2.46108 5.19516 2.3746 5.23098 2.31083 5.29474C2.24707 5.3585 2.21125 5.44498 2.21125 5.53516V8.19849C2.21125 8.58924 2.36648 8.96399 2.64278 9.24029C2.91908 9.5166 3.29383 9.67182 3.68458 9.67182H7.31125C7.702 9.67182 8.07675 9.5166 8.35305 9.24029C8.62936 8.96399 8.78458 8.58924 8.78458 8.19849V5.53516C8.78458 5.44498 8.74876 5.3585 8.685 5.29474C8.62124 5.23098 8.53476 5.19516 8.44458 5.19516H2.55125Z" fill="white"/>
</svg>
