<svg width="68" height="68" viewBox="0 0 68 68" fill="none" xmlns="http://www.w3.org/2000/svg">
<path d="M21.5007 54.8332V40.9445L32.6117 47.8888L21.5007 54.8332ZM36.7783 28.4446C34.4635 28.4446 32.496 27.6344 30.8756 26.014C29.2552 24.3937 28.4451 22.4261 28.4451 20.1113C28.4451 17.7965 29.2552 15.829 30.8756 14.2086C32.496 12.5883 34.4635 11.7781 36.7783 11.7781H40.2505V15.9447H36.7783C35.6209 15.9447 34.6376 16.3503 33.8283 17.1614C33.0191 17.9725 32.6135 18.9558 32.6117 20.1113C32.6098 21.2669 33.0154 22.2511 33.8283 23.0641C34.6413 23.877 35.6246 24.2817 36.7783 24.278H40.2505V28.4446H36.7783ZM44.4171 28.4446V24.278H47.8893C49.0467 24.278 50.031 23.8733 50.8421 23.0641C51.6532 22.2548 52.0578 21.2706 52.0559 20.1113C52.0541 18.9521 51.6495 17.9688 50.8421 17.1614C50.0347 16.354 49.0504 15.9484 47.8893 15.9447H44.4171V11.7781H47.8893C50.2041 11.7781 52.1717 12.5883 53.792 14.2086C55.4124 15.829 56.2226 17.7965 56.2226 20.1113C56.2226 22.4261 55.4124 24.3937 53.792 26.014C52.1717 27.6344 50.2041 28.4446 47.8893 28.4446H44.4171ZM36.7783 22.1946V18.028H47.8893V22.1946H36.7783ZM45.3893 39.5556V34.0001H59.0003V9.00033H25.6673V34.0001H20.1118V9.00033C20.1118 7.47256 20.6563 6.16517 21.7451 5.07814C22.834 3.99112 24.1414 3.44668 25.6673 3.44482H59.0003C60.5281 3.44482 61.8364 3.98926 62.9253 5.07814C64.0142 6.16702 64.5577 7.47441 64.5558 9.00033V34.0001C64.5558 35.5278 64.0123 36.8362 62.9253 37.925C61.8383 39.0139 60.5299 39.5574 59.0003 39.5556H45.3893ZM9.00081 64.5553C7.47305 64.5553 6.16566 64.0118 5.07863 62.9248C3.9916 61.8378 3.44716 60.5294 3.44531 58.9998V36.7778C3.44531 35.2501 3.98975 33.9427 5.07863 32.8556C6.16751 31.7686 7.4749 31.2242 9.00081 31.2223H42.3338C43.8616 31.2223 45.1699 31.7668 46.2588 32.8556C47.3477 33.9445 47.8912 35.2519 47.8893 36.7778V58.9998C47.8893 60.5276 47.3458 61.8359 46.2588 62.9248C45.1718 64.0137 43.8634 64.5572 42.3338 64.5553H9.00081ZM9.00081 58.9998H42.3338V36.7778H9.00081V58.9998Z" fill="#454545"/>
</svg>
